#!OML:ASF F:\VICON\USERDATA\Patient Classification 1\PLAYGROUND\JustinFriday\JustinFriday.ASF
:FULLY-SPECIFIED
:DEGREES
873
root 13.6657 30.7045 42.3031 -161.963 -4.26054 -175.187
lowerback 34.6774 0.985398 -1.52526
upperback 0.280851 0.277788 1.30221
thorax -17.6783 0.0498359 2.23414
lowerneck 33.2485 -8.43591 -13.9847
upperneck -18.4868 -14.5433 12.551
head -9.05399 -7.53306 8.94982
rclavicle 7.15625e-015 -1.63003e-014
rhumerus 88.7596 -23.0971 -65.2983
rradius 141.871
rwrist 7.44839
rhand -42.3172 -5.05586
rfingers 7.12502
rthumb -15.2007 -34.4775
lclavicle 7.15625e-015 -1.63003e-014
lhumerus 90.8543 18.3734 63.5746
lradius 133.611
lwrist -10.5597
lhand -34.2401 -35.6781
lfingers 7.12502
lthumb -7.41132 -5.82796
rfemur -40.4227 -9.70928 31.9358
rtibia 60.6712
rfoot -42.4909 -21.9306
rtoes -4.18256
lfemur -40.1808 8.68459 -16.2605
ltibia 60.8992
lfoot -43.9018 -3.36201
ltoes -5.39544
874
root 13.685 30.6956 42.3019 -162.171 -4.02247 -174.929
lowerback 34.8083 1.14594 -1.61158
upperback 0.338413 0.439433 1.33957
thorax -17.673 0.118787 2.25011
lowerneck 33.6338 -8.67062 -13.935
upperneck -18.6364 -14.8517 12.6369
head -9.11342 -7.69156 9.04286
rclavicle -8.74653e-015 1.59028e-015
rhumerus 88.7483 -22.9638 -65.345
rradius 141.916
rwrist 7.46846
rhand -42.1573 -4.92262
rfingers 7.12502
rthumb -15.0467 -34.3558
lclavicle -8.74653e-015 1.59028e-015
lhumerus 90.7977 18.3799 63.5597
lradius 133.579
lwrist -10.4465
lhand -34.2036 -35.929
lfingers 7.12502
lthumb -7.37614 -6.07762
rfemur -40.1612 -9.36161 32.152
rtibia 60.691
rfoot -42.502 -21.9062
rtoes -4.41417
lfemur -39.9941 9.03799 -15.9536
ltibia 61.0308
lfoot -43.3011 -5.30528
ltoes -0.0318466
875
root 13.6907 30.6885 42.2973 -162.154 -4.51534 -175.02
lowerback 34.7253 0.861683 -1.28476
upperback 0.342794 0.202154 1.30708
thorax -17.6174 -0.00778893 2.14399
lowerneck 33.9358 -8.83321 -14.068
upperneck -18.735 -15.0955 12.8917
head -9.12093 -7.83334 9.20357
rclavicle 1.94809e-014 -1.19271e-014
rhumerus 88.8096 -22.7535 -65.5445
rradius 141.931
rwrist 7.41437
rhand -41.9018 -4.59037
rfingers 7.12502
rthumb -14.8005 -34.0418
lclavicle 1.94809e-014 -1.19271e-014
lhumerus 90.7482 18.3972 63.6541
lradius 133.599
lwrist -10.3175
lhand -33.9543 -36.0817
lfingers 7.12502
lthumb -7.13549 -6.22196
rfemur -40.2263 -9.75226 32.2374
rtibia 60.7306
rfoot -42.6867 -21.7854
rtoes -4.27399
lfemur -40.152 8.59303 -15.8898
ltibia 61.1599
lfoot -42.8773 -6.49781
ltoes 3.12928
876
root 13.7133 30.6877 42.293 -162.289 -4.09863 -174.927
lowerback 34.8453 1.12736 -1.66879
upperback 0.323829 0.386701 1.30376
thorax -17.7039 0.101024 2.26548
lowerneck 34.1506 -8.87775 -14.3028
upperneck -18.7411 -15.1877 13.2765
head -9.08505 -7.91735 9.39577
rclavicle 9.93923e-015 -3.97569e-016
rhumerus 88.7264 -22.5264 -65.6705
rradius 141.893
rwrist 7.38006
rhand -41.7224 -4.61884
rfingers 7.12502
rthumb -14.6277 -34.0829
lclavicle 9.93923e-015 -3.97569e-016
lhumerus 90.6287 18.4106 63.7155
lradius 133.615
lwrist -10.2576
lhand -33.6906 -36.1111
lfingers 7.12502
lthumb -6.88089 -6.24294
rfemur -39.998 -9.24152 32.2387
rtibia 60.7452
rfoot -42.7246 -21.8027
rtoes -3.60342
lfemur -39.9634 9.13619 -15.8251
ltibia 61.2487
lfoot -42.9721 -6.4726
ltoes 2.86872
877
root 13.7283 30.686 42.2898 -162.355 -4.04371 -174.972
lowerback 34.8256 1.17241 -1.8072
upperback 0.347078 0.378607 1.25975
thorax -17.6668 0.105364 2.29502
lowerneck 33.8975 -8.80854 -14.6978
upperneck -18.4762 -15.1186 13.7955
head -8.88218 -7.94286 9.57972
rclavicle 1.78906e-014 -1.07344e-014
rhumerus 88.6586 -22.2889 -65.8634
rradius 141.929
rwrist 7.36654
rhand -41.3298 -4.72881
rfingers 7.12502
rthumb -14.2494 -34.22
lclavicle 1.78906e-014 -1.07344e-014
lhumerus 90.532 18.4194 63.6926
lradius 133.591
lwrist -10.2386
lhand -33.582 -36.1254
lfingers 7.12502
lthumb -6.77609 -6.25384
rfemur -39.9037 -9.07814 32.1966
rtibia 60.7925
rfoot -42.775 -21.7469
rtoes -2.88124
lfemur -39.897 9.27792 -15.8284
ltibia 61.323
lfoot -43.003 -6.36857
ltoes 2.82312
878
root 13.743 30.6832 42.2886 -162.485 -4.00535 -175.021
lowerback 34.8727 1.23081 -1.96867
upperback 0.401667 0.377278 1.2608
thorax -17.621 0.112552 2.3849
lowerneck 33.2801 -8.51535 -15.8016
upperneck -17.8116 -14.8327 15.1867
head -8.38681 -7.95266 10.0866
rclavicle 2.38542e-015 5.96354e-015
rhumerus 88.6204 -22.0184 -66.1352
rradius 141.946
rwrist 7.28099
rhand -40.8759 -4.52684
rfingers 7.12502
rthumb -13.812 -34.0483
lclavicle 2.38542e-015 5.96354e-015
lhumerus 90.4614 18.4351 63.8132
lradius 133.632
lwrist -10.3157
lhand -33.3921 -36.0098
lfingers 7.12502
lthumb -6.59278 -6.13241
rfemur -39.7526 -8.97326 32.1505
rtibia 60.8247
rfoot -42.8525 -21.5991
rtoes -2.69389
lfemur -39.7733 9.33304 -15.8186
ltibia 61.409
lfoot -43.015 -6.17485
ltoes 3.7615
879
root 13.7592 30.6774 42.2899 -162.573 -4.00043 -175.006
lowerback 34.8838 1.28708 -2.11816
upperback 0.425414 0.39374 1.30871
thorax -17.5998 0.131534 2.51221
lowerneck 32.9684 -8.72715 -15.0333
upperneck -18.319 -14.9969 14.0205
head -8.6548 -7.89619 9.60304
rclavicle 3.18055e-015 9.14409e-015
rhumerus 88.4299 -21.7166 -66.3026
rradius 141.894
rwrist 7.21009
rhand -40.9139 -4.63379
rfingers 7.12502
rthumb -13.8486 -34.1528
lclavicle 3.18055e-015 9.14409e-015
lhumerus 90.443 18.498 64.1153
lradius 133.694
lwrist -10.4104
lhand -33.0189 -35.8154
lfingers 7.12502
lthumb -6.23242 -5.92705
rfemur -39.6686 -8.81862 32.1826
rtibia 60.8687
rfoot -42.9061 -21.696
rtoes -3.05371
lfemur -39.7429 9.3957 -15.7444
ltibia 61.5182
lfoot -43.0146 -6.02222
ltoes 2.04917
880
root 13.7727 30.6721 42.2937 -162.597 -4.23862 -174.998
lowerback 34.9151 1.1865 -2.03566
upperback 0.412629 0.299507 1.31691
thorax -17.623 0.0869602 2.51989
lowerneck 32.5687 -8.64335 -15.1685
upperneck -18.2195 -14.8728 14.1247
head -8.5585 -7.84332 9.60691
rclavicle 5.1684e-015 -1.19271e-015
rhumerus 88.0641 -21.4586 -66.1872
rradius 141.722
rwrist 7.31832
rhand -41.5992 -5.33484
rfingers 7.12502
rthumb -14.509 -34.8075
lclavicle 5.1684e-015 -1.19271e-015
lhumerus 90.4605 18.6227 64.2805
lradius 133.61
lwrist -10.2901
lhand -32.8312 -35.7856
lfingers 7.12502
lthumb -6.05128 -5.89198
rfemur -39.6937 -8.87532 32.2764
rtibia 60.9135
rfoot -42.8406 -21.9311
rtoes -3.41098
lfemur -39.8377 9.23213 -15.6323
ltibia 61.638
lfoot -42.8963 -6.08559
ltoes 1.67626
881
root 13.7835 30.6718 42.2969 -162.589 -4.53266 -175.245
lowerback 35.0103 1.03891 -2.04503
upperback 0.359209 0.0940113 1.23014
thorax -17.7163 0.00297859 2.52281
lowerneck 31.7533 -8.81947 -12.6273
upperneck -17.9398 -14.7249 10.8135
head -8.86585 -7.49008 8.01347
rclavicle 1.78906e-014 -9.54166e-015
rhumerus 87.5583 -21.1982 -65.8659
rradius 141.447
rwrist 7.55416
rhand -42.3259 -6.29031
rfingers 7.12502
rthumb -15.2091 -35.7113
lclavicle 1.78906e-014 -9.54166e-015
lhumerus 90.3034 18.7561 64.194
lradius 133.507
lwrist -10.0213
lhand -32.8926 -35.9966
lfingers 7.12502
lthumb -6.11052 -6.10469
rfemur -39.7775 -9.08972 32.117
rtibia 60.9889
rfoot -42.8864 -21.9192
rtoes -3.23443
lfemur -39.95 8.9141 -15.7943
ltibia 61.7336
lfoot -42.7702 -6.24364
ltoes 1.76961
882
root 13.8004 30.6723 42.2975 -162.617 -4.30329 -175.293
lowerback 35.009 1.19072 -2.33699
upperback 0.396665 0.161219 1.20704
thorax -17.6743 0.0503516 2.62455
lowerneck 31.2309 -8.7921 -12.3163
upperneck -17.7146 -14.6275 10.3102
head -8.78873 -7.40549 7.73287
rclavicle -1.19271e-014 -2.26615e-014
rhumerus 87.2647 -20.962 -65.6602
rradius 141.122
rwrist 7.72134
rhand -43.4852 -6.17293
rfingers 7.12502
rthumb -16.3256 -35.5058
lclavicle -1.19271e-014 -2.26615e-014
lhumerus 90.1993 18.9451 64.0791
lradius 133.513
lwrist -9.7158
lhand -32.9632 -36.2388
lfingers 7.12502
lthumb -6.1787 -6.34893
rfemur -39.7493 -8.76139 32.0367
rtibia 61.0506
rfoot -42.9918 -21.8281
rtoes -2.86793
lfemur -39.9418 9.22798 -15.8483
ltibia 61.8294
lfoot -42.998 -5.96917
ltoes 0.369006
883
root 13.8073 30.6664 42.2977 -162.462 -4.47546 -175.133
lowerback 34.6902 1.05877 -2.04599
upperback 0.470878 0.115859 1.20621
thorax -17.4433 0.00353106 2.48353
lowerneck 30.6139 -8.80237 -12.1131
upperneck -17.4746 -14.5756 9.97208
head -8.66102 -7.35959 7.52087
rclavicle -4.37326e-015 -1.19271e-014
rhumerus 87.0836 -20.7474 -65.5439
rradius 140.807
rwrist 7.89801
rhand -44.2733 -6.2909
rfingers 7.12502
rthumb -17.0843 -35.5597
lclavicle -4.37326e-015 -1.19271e-014
lhumerus 90.2663 19.1509 64.0015
lradius 133.682
lwrist -9.32974
lhand -33.0408 -36.448
lfingers 7.12502
lthumb -6.25356 -6.56026
rfemur -39.9709 -8.71769 32.3163
rtibia 61.1237
rfoot -43.078 -21.8185
rtoes -2.73057
lfemur -40.2612 9.27853 -15.6418
ltibia 61.959
lfoot -43.1914 -5.49704
ltoes -1.41643
884
root 13.8138 30.6612 42.2991 -162.562 -4.6385 -175.127
lowerback 34.7891 0.940434 -1.85076
upperback 0.488775 0.0185979 1.12808
thorax -17.4566 -0.0592371 2.33551
lowerneck 30.3603 -8.77323 -12.0238
upperneck -17.3921 -14.5022 9.85285
head -8.6194 -7.31712 7.43664
rclavicle 1.19271e-015 7.55382e-015
rhumerus 86.73 -20.4812 -65.3151
rradius 140.475
rwrist 8.16669
rhand -45.1025 -6.59891
rfingers 7.12502
rthumb -17.8823 -35.7968
lclavicle 1.19271e-015 7.55382e-015
lhumerus 90.2226 19.2911 63.9809
lradius 133.517
lwrist -9.39196
lhand -32.7017 -35.6377
lfingers 7.12502
lthumb -5.92618 -5.74056
rfemur -39.8862 -8.81813 32.3707
rtibia 61.1864
rfoot -43.241 -21.8156
rtoes -2.6063
lfemur -40.2521 9.20524 -15.5746
ltibia 62.0674
lfoot -42.9704 -5.81276
ltoes -0.476216
885
root 13.8241 30.6575 42.3037 -162.678 -4.57164 -175.341
lowerback 34.9756 0.974905 -2.04783
upperback 0.474081 -0.0455566 1.01494
thorax -17.5497 -0.0755291 2.34724
lowerneck 30.2886 -8.69928 -12.1205
upperneck -17.4548 -14.4193 9.92639
head -8.62668 -7.27791 7.46712
rclavicle -3.06128e-014 1.70955e-014
rhumerus 86.4075 -20.1906 -65.179
rradius 140.146
rwrist 8.34934
rhand -45.3766 -6.46
rfingers 7.12502
rthumb -18.146 -35.6336
lclavicle -3.06128e-014 1.70955e-014
lhumerus 90.1059 19.4341 64.0718
lradius 133.442
lwrist -9.34765
lhand -32.5144 -35.5022
lfingers 7.12502
lthumb -5.74537 -5.60013
rfemur -39.7731 -8.79755 32.1265
rtibia 61.2505
rfoot -43.3981 -21.7047
rtoes -2.33589
lfemur -40.1464 9.2027 -15.7758
ltibia 62.1571
lfoot -42.9446 -5.68662
ltoes -0.642108
886
root 13.8223 30.6537 42.3109 -162.666 -5.0157 -175.44
lowerback 35.0791 0.696493 -1.70072
upperback 0.444238 -0.27542 0.954187
thorax -17.6186 -0.20027 2.19739
lowerneck 30.0902 -8.63338 -12.2823
upperneck -17.5248 -14.3536 10.0344
head -8.60629 -7.24791 7.51132
rclavicle -1.19271e-015 -3.97569e-015
rhumerus 86.1613 -19.9358 -65.1275
rradius 139.878
rwrist 8.45475
rhand -44.7066 -6.53561
rfingers 7.12502
rthumb -17.5013 -35.7678
lclavicle -1.19271e-015 -3.97569e-015
lhumerus 90.119 19.5435 64.2886
lradius 133.388
lwrist -9.32926
lhand -32.5258 -36.0279
lfingers 7.12502
lthumb -5.75639 -6.12613
rfemur -39.8749 -9.19484 32.1552
rtibia 61.3009
rfoot -43.4233 -21.7726
rtoes -2.32993
lfemur -40.3113 8.74902 -15.7754
ltibia 62.2356
lfoot -43.0371 -5.11747
ltoes -2.18409
